# xmcd
#
# Track frame offsets:
#	150
#	16947
#	35466
#	53967
#	77989
#	95329
#	111527
#	132625
#	156212
#	179005
#	193848
#	213458
#	230960
#	254152
#
# Disc length: 3730 seconds
#
# Revision: 0
# Processed by: cddbd v1.5.1PL0 Copyright (c) Steve Scherf et al.
# Submitted via: audiograbber 1.82.02
#
DISCID=da0e900e
DTITLE=Pops Walker - Live 'n 'Drivin' On
DYEAR=2005
DGENRE=Blues
TTITLE0=Getaway
TTITLE1=Best I Can
TTITLE2=Universal Mundane Church of the Uninformed
TTITLE3=Driving On
TTITLE4='Coustic Blues
TTITLE5=Good News
TTITLE6=Good Time Charlie's Got the Blues
TTITLE7=Rock Me in Your Arms
TTITLE8=Here We Go Again
TTITLE9=Over the Rainbow
TTITLE10=Honey Lay Down Your Problems
TTITLE11=Four and Twenty
TTITLE12=Hop 'n' John
TTITLE13=Dirt Road
EXTD=Recorded "live" at The Church House Concert Series, Nov. 13, 2004, in Hadd
EXTD=am Connecticut.  All vocals and Guitar: Rick "Pops Walker", except on Good
EXTD=Time Charlie, where John Friedlander accompanies on acoustic guitar and D
EXTD=an Gage on harmonica.
EXTT0=
EXTT1=
EXTT2=
EXTT3=
EXTT4=
EXTT5=
EXTT6=
EXTT7=
EXTT8=
EXTT9=
EXTT10=
EXTT11=
EXTT12=
EXTT13=
PLAYORDER=
